<?xml version='1.0' encoding='utf-8'?>
<svg xmlns="http://www.w3.org/2000/svg" viewBox="0 0 390 400" width="100%" height="100%" version="1.1" style="background-color: transparent;"><path id="path2" d="m 254.25 146.93 c 13.19 -0.07 26.38 -0.05 39.57 0.01 0 10.56 0 21.12 0 32 -5.89 0.02 -5.89 0.02 -11.9 0.04 -3.82 0.03 -7.65 0.07 -11.48 0.11 -2.64 0.03 -5.29 0.04 -7.94 0.05 -3.82 0 -7.64 0.05 -11.45 0.09 -1.76 0 -1.76 0 -3.56 -0.01 -10.21 0.18 -18.43 3.32 -25.67 10.72 -6.63 9.41 -9.47 17.57 -9.29 28.98 0 1.08 0.01 2.15 0.01 3.25 0.01 2.32 0.03 4.64 0.05 6.96 0.04 3.68 0.06 7.36 0.08 11.04 0.04 9.14 0.11 18.28 0.18 27.42 0.06 7.73 0.11 15.46 0.14 23.18 0.02 3.61 0.05 7.22 0.09 10.83 0.12 17.31 -0.39 32.08 -12.82 45.4 -5.27 5.02 -11.38 8.95 -17.44 12.94 -2.78 -4.17 -3.13 -6.04 -3.14 -11.04 -0.01 -1.29 -0.01 -2.57 -0.02 -3.9 0 -1.44 0 -2.87 0 -4.31 -0.01 -1.51 -0.01 -3.01 -0.02 -4.52 -0.01 -4.1 -0.02 -8.2 -0.02 -12.3 0 -2.57 -0.01 -5.14 -0.01 -7.7 -0.02 -8.04 -0.03 -16.08 -0.03 -24.11 0 -9.26 -0.02 -18.52 -0.05 -27.78 -0.02 -7.17 -0.03 -14.33 -0.03 -21.5 0 -4.27 -0.01 -8.55 -0.03 -12.82 -0.01 -4.03 -0.02 -8.06 -0.01 -12.09 0 -1.47 0 -2.94 -0.01 -4.41 -0.13 -19.49 4.71 -35.25 18.37 -49.52 16.87 -15.16 34.63 -16.9 56.43 -17.01 z" fill="#252524" /><path id="path3" d="m 200.82 144.94 c -0.68 0.4 -1.36 0.8 -2.05 1.21 -14.05 8.59 -22.61 18.1 -29.95 32.79 -22.44 0 -44.88 0 -68 0 0 -10.56 0 -21.12 0 -32 2.27 -0.02 4.54 -0.04 6.87 -0.06 7.57 -0.07 15.14 -0.15 22.71 -0.23 4.58 -0.05 9.16 -0.09 13.74 -0.13 4.43 -0.04 8.87 -0.09 13.3 -0.14 1.68 -0.02 3.36 -0.03 5.03 -0.04 9.61 -0.07 19.02 -0.5 28.56 -1.8 6.46 -0.84 6.46 -0.84 9.79 0.4 z" fill="#292928" /><path id="browser" d="m 112.81531 58.200088 c -6.60062 0 -11.95766 5.324375 -11.95766 11.884753 0 6.572267 5.35704 11.884752 11.95766 11.884752 6.60062 0 11.95766 -5.312485 11.95766 -11.884752 0 -6.560378 -5.35704 -11.884753 -11.95766 -11.884753 z m 47.83065 0 c -6.60063 0 -11.95767 5.324375 -11.95767 11.884753 0 6.572267 5.35704 11.884752 11.95767 11.884752 6.60063 0 11.95767 -5.312485 11.95767 -11.884752 0 -6.560378 -5.35704 -11.884753 -11.95767 -11.884753 z M 363.92625 105.7391 H 29.111656 V 58.200088 c 0 -13.120761 10.714071 -23.7695 23.915338 -23.7695 H 340.01091 c 13.20127 0 23.91534 10.648739 23.91534 23.7695 z m 0 237.69503 c 0 13.12076 -10.71407 23.7695 -23.91534 23.7695 H 53.026994 c -13.201267 0 -23.915338 -10.64874 -23.915338 -23.7695 V 129.50859 H 363.92625 Z M 340.01091 10.661088 H 53.026994 c -26.414489 0 -47.8306607 21.285585 -47.8306607 47.539 V 343.43413 c 0 26.25341 21.4161717 47.539 47.8306607 47.539 H 340.01091 c 26.41449 0 47.83066 -21.28559 47.83066 -47.539 V 58.200088 c 0 -26.253415 -21.41617 -47.539 -47.83066 -47.539 z m -275.026253 47.539 c -6.600639 0 -11.957663 5.324375 -11.957663 11.884753 0 6.572267 5.357024 11.884752 11.957663 11.884752 6.600629 0 11.957664 -5.312485 11.957664 -11.884752 0 -6.560378 -5.357035 -11.884753 -11.957664 -11.884753 z" fill="#000000" fill-rule="evenodd" /></svg>